<?xml version="1.0" encoding="utf-8" standalone="no"?>
<!DOCTYPE svg PUBLIC "-//W3C//DTD SVG 1.1//EN"
  "http://www.w3.org/Graphics/SVG/1.1/DTD/svg11.dtd">
<svg xmlns:xlink="http://www.w3.org/1999/xlink" width="316.8pt" height="273.6pt" viewBox="0 0 316.8 273.6" xmlns="http://www.w3.org/2000/svg" version="1.1">
 <metadata>
  <rdf:RDF xmlns:dc="http://purl.org/dc/elements/1.1/" xmlns:cc="http://creativecommons.org/ns#" xmlns:rdf="http://www.w3.org/1999/02/22-rdf-syntax-ns#">
   <cc:Work>
    <dc:type rdf:resource="http://purl.org/dc/dcmitype/StillImage"/>
    <dc:date>2026-09-27T19:03:39.720080</dc:date>
    <dc:format>image/svg+xml</dc:format>
    <dc:creator>
     <cc:Agent>
      <dc:title>Matplotlib v3.10.8, https://matplotlib.org/</dc:title>
     </cc:Agent>
    </dc:creator>
   </cc:Work>
  </rdf:RDF>
 </metadata>
 <defs>
  <style type="text/css">*{stroke-linejoin: round; stroke-linecap: butt}</style>
 </defs>
 <g id="figure_1">
  <g id="patch_1">
   <path d="M 0 273.6 
L 316.8 273.6 
L 316.8 0 
L 0 0 
z
" style="fill: #ffffff"/>
  </g>
  <g id="axes_1">
   <g id="patch_2">
    <path d="M 48.8 231.64 
L 293.85 231.64 
L 293.85 24.72 
L 48.8 24.72 
z
" style="fill: #ffffff"/>
   </g>
   <g id="PathCollection_1">
    <defs>
     <path id="m1086ada972" d="M 0 3.391165 
C 0.899347 3.391165 1.761981 3.03385 2.397916 2.397916 
C 3.03385 1.761981 3.391165 0.899347 3.391165 0 
C 3.391165 -0.899347 3.03385 -1.761981 2.397916 -2.397916 
C 1.761981 -3.03385 0.899347 -3.391165 0 -3.391165 
C -0.899347 -3.391165 -1.761981 -3.03385 -2.397916 -2.397916 
C -3.03385 -1.761981 -3.391165 -0.899347 -3.391165 0 
C -3.391165 0.899347 -3.03385 1.761981 -2.397916 2.397916 
C -1.761981 3.03385 -0.899347 3.391165 0 3.391165 
z
" style="stroke: #1f77b4"/>
    </defs>
    <g clip-path="url(#pc28463d368)">
     <use xlink:href="#m1086ada972" x="154.276183" y="34.125455" style="fill: #1f77b4; stroke: #1f77b4"/>
    </g>
   </g>
   <g id="PathCollection_2">
    <defs>
     <path id="mb70df67480" d="M 0 3.391165 
C 0.899347 3.391165 1.761981 3.03385 2.397916 2.397916 
C 3.03385 1.761981 3.391165 0.899347 3.391165 0 
C 3.391165 -0.899347 3.03385 -1.761981 2.397916 -2.397916 
C 1.761981 -3.03385 0.899347 -3.391165 0 -3.391165 
C -0.899347 -3.391165 -1.761981 -3.03385 -2.397916 -2.397916 
C -3.03385 -1.761981 -3.391165 -0.899347 -3.391165 0 
C -3.391165 0.899347 -3.03385 1.761981 -2.397916 2.397916 
C -1.761981 3.03385 -0.899347 3.391165 0 3.391165 
z
" style="stroke: #ff7f0e"/>
    </defs>
    <g clip-path="url(#pc28463d368)">
     <use xlink:href="#mb70df67480" x="157.231437" y="50.801002" style="fill: #ff7f0e; stroke: #ff7f0e"/>
    </g>
   </g>
   <g id="PathCollection_3">
    <defs>
     <path id="mc2f7de77f7" d="M 0 3.391165 
C 0.899347 3.391165 1.761981 3.03385 2.397916 2.397916 
C 3.03385 1.761981 3.391165 0.899347 3.391165 0 
C 3.391165 -0.899347 3.03385 -1.761981 2.397916 -2.397916 
C 1.761981 -3.03385 0.899347 -3.391165 0 -3.391165 
C -0.899347 -3.391165 -1.761981 -3.03385 -2.397916 -2.397916 
C -3.03385 -1.761981 -3.391165 -0.899347 -3.391165 0 
C -3.391165 0.899347 -3.03385 1.761981 -2.397916 2.397916 
C -1.761981 3.03385 -0.899347 3.391165 0 3.391165 
z
" style="stroke: #2ca02c"/>
    </defs>
    <g clip-path="url(#pc28463d368)">
     <use xlink:href="#mc2f7de77f7" x="140.896003" y="65.301351" style="fill: #2ca02c; stroke: #2ca02c"/>
    </g>
   </g>
   <g id="PathCollection_4">
    <defs>
     <path id="m95be91eb9b" d="M 0 3.391165 
C 0.899347 3.391165 1.761981 3.03385 2.397916 2.397916 
C 3.03385 1.761981 3.391165 0.899347 3.391165 0 
C 3.391165 -0.899347 3.03385 -1.761981 2.397916 -2.397916 
C 1.761981 -3.03385 0.899347 -3.391165 0 -3.391165 
C -0.899347 -3.391165 -1.761981 -3.03385 -2.397916 -2.397916 
C -3.03385 -1.761981 -3.391165 -0.899347 -3.391165 0 
C -3.391165 0.899347 -3.03385 1.761981 -2.397916 2.397916 
C -1.761981 3.03385 -0.899347 3.391165 0 3.391165 
z
" style="stroke: #d62728"/>
    </defs>
    <g clip-path="url(#pc28463d368)">
     <use xlink:href="#m95be91eb9b" x="62.812274" y="172.461679" style="fill: #d62728; stroke: #d62728"/>
    </g>
   </g>
   <g id="PathCollection_5">
    <defs>
     <path id="ma36804be1a" d="M 0 3.391165 
C 0.899347 3.391165 1.761981 3.03385 2.397916 2.397916 
C 3.03385 1.761981 3.391165 0.899347 3.391165 0 
C 3.391165 -0.899347 3.03385 -1.761981 2.397916 -2.397916 
C 1.761981 -3.03385 0.899347 -3.391165 0 -3.391165 
C -0.899347 -3.391165 -1.761981 -3.03385 -2.397916 -2.397916 
C -3.03385 -1.761981 -3.391165 -0.899347 -3.391165 0 
C -3.391165 0.899347 -3.03385 1.761981 -2.397916 2.397916 
C -1.761981 3.03385 -0.899347 3.391165 0 3.391165 
z
" style="stroke: #9467bd"/>
    </defs>
    <g clip-path="url(#pc28463d368)">
     <use xlink:href="#ma36804be1a" x="65.294886" y="178.941601" style="fill: #9467bd; stroke: #9467bd"/>
    </g>
   </g>
   <g id="PathCollection_6">
    <defs>
     <path id="m4fe1d86aea" d="M 0 3.391165 
C 0.899347 3.391165 1.761981 3.03385 2.397916 2.397916 
C 3.03385 1.761981 3.391165 0.899347 3.391165 0 
C 3.391165 -0.899347 3.03385 -1.761981 2.397916 -2.397916 
C 1.761981 -3.03385 0.899347 -3.391165 0 -3.391165 
C -0.899347 -3.391165 -1.761981 -3.03385 -2.397916 -2.397916 
C -3.03385 -1.761981 -3.391165 -0.899347 -3.391165 0 
C -3.391165 0.899347 -3.03385 1.761981 -2.397916 2.397916 
C -1.761981 3.03385 -0.899347 3.391165 0 3.391165 
z
" style="stroke: #8c564b"/>
    </defs>
    <g clip-path="url(#pc28463d368)">
     <use xlink:href="#m4fe1d86aea" x="59.938636" y="181.200159" style="fill: #8c564b; stroke: #8c564b"/>
    </g>
   </g>
   <g id="PathCollection_7">
    <defs>
     <path id="mc57cbe6d27" d="M 0 3.391165 
C 0.899347 3.391165 1.761981 3.03385 2.397916 2.397916 
C 3.03385 1.761981 3.391165 0.899347 3.391165 0 
C 3.391165 -0.899347 3.03385 -1.761981 2.397916 -2.397916 
C 1.761981 -3.03385 0.899347 -3.391165 0 -3.391165 
C -0.899347 -3.391165 -1.761981 -3.03385 -2.397916 -2.397916 
C -3.03385 -1.761981 -3.391165 -0.899347 -3.391165 0 
C -3.391165 0.899347 -3.03385 1.761981 -2.397916 2.397916 
C -1.761981 3.03385 -0.899347 3.391165 0 3.391165 
z
" style="stroke: #e377c2"/>
    </defs>
    <g clip-path="url(#pc28463d368)">
     <use xlink:href="#mc57cbe6d27" x="73.469584" y="155.830747" style="fill: #e377c2; stroke: #e377c2"/>
    </g>
   </g>
   <g id="PathCollection_8">
    <defs>
     <path id="m331aef5545" d="M 0 3.391165 
C 0.899347 3.391165 1.761981 3.03385 2.397916 2.397916 
C 3.03385 1.761981 3.391165 0.899347 3.391165 0 
C 3.391165 -0.899347 3.03385 -1.761981 2.397916 -2.397916 
C 1.761981 -3.03385 0.899347 -3.391165 0 -3.391165 
C -0.899347 -3.391165 -1.761981 -3.03385 -2.397916 -2.397916 
C -3.03385 -1.761981 -3.391165 -0.899347 -3.391165 0 
C -3.391165 0.899347 -3.03385 1.761981 -2.397916 2.397916 
C -1.761981 3.03385 -0.899347 3.391165 0 3.391165 
z
" style="stroke: #7f7f7f"/>
    </defs>
    <g clip-path="url(#pc28463d368)">
     <use xlink:href="#m331aef5545" x="277.489233" y="130.032831" style="fill: #7f7f7f; stroke: #7f7f7f"/>
    </g>
   </g>
   <g id="PathCollection_9">
    <defs>
     <path id="m2805adf8c4" d="M 0 3.391165 
C 0.899347 3.391165 1.761981 3.03385 2.397916 2.397916 
C 3.03385 1.761981 3.391165 0.899347 3.391165 0 
C 3.391165 -0.899347 3.03385 -1.761981 2.397916 -2.397916 
C 1.761981 -3.03385 0.899347 -3.391165 0 -3.391165 
C -0.899347 -3.391165 -1.761981 -3.03385 -2.397916 -2.397916 
C -3.03385 -1.761981 -3.391165 -0.899347 -3.391165 0 
C -3.391165 0.899347 -3.03385 1.761981 -2.397916 2.397916 
C -1.761981 3.03385 -0.899347 3.391165 0 3.391165 
z
" style="stroke: #bcbd22"/>
    </defs>
    <g clip-path="url(#pc28463d368)">
     <use xlink:href="#m2805adf8c4" x="282.711364" y="132.209603" style="fill: #bcbd22; stroke: #bcbd22"/>
    </g>
   </g>
   <g id="PathCollection_10">
    <defs>
     <path id="m5734c71021" d="M 0 3.391165 
C 0.899347 3.391165 1.761981 3.03385 2.397916 2.397916 
C 3.03385 1.761981 3.391165 0.899347 3.391165 0 
C 3.391165 -0.899347 3.03385 -1.761981 2.397916 -2.397916 
C 1.761981 -3.03385 0.899347 -3.391165 0 -3.391165 
C -0.899347 -3.391165 -1.761981 -3.03385 -2.397916 -2.397916 
C -3.03385 -1.761981 -3.391165 -0.899347 -3.391165 0 
C -3.391165 0.899347 -3.03385 1.761981 -2.397916 2.397916 
C -1.761981 3.03385 -0.899347 3.391165 0 3.391165 
z
" style="stroke: #17becf"/>
    </defs>
    <g clip-path="url(#pc28463d368)">
     <use xlink:href="#m5734c71021" x="279.508655" y="121.783104" style="fill: #17becf; stroke: #17becf"/>
    </g>
   </g>
   <g id="PathCollection_11">
    <g clip-path="url(#pc28463d368)">
     <use xlink:href="#m1086ada972" x="230.12349" y="218.462117" style="fill: #1f77b4; stroke: #1f77b4"/>
    </g>
   </g>
   <g id="PathCollection_12">
    <g clip-path="url(#pc28463d368)">
     <use xlink:href="#mb70df67480" x="225.308792" y="222.234545" style="fill: #ff7f0e; stroke: #ff7f0e"/>
    </g>
   </g>
   <g id="PathCollection_13">
    <g clip-path="url(#pc28463d368)">
     <use xlink:href="#mc2f7de77f7" x="212.392101" y="219.637389" style="fill: #2ca02c; stroke: #2ca02c"/>
    </g>
   </g>
   <g id="matplotlib.axis_1">
    <g id="xtick_1">
     <g id="line2d_1">
      <defs>
       <path id="meecf9f1d3c" d="M 0 0 
L 0 3.5 
" style="stroke: #000000; stroke-width: 0.8"/>
      </defs>
      <g>
       <use xlink:href="#meecf9f1d3c" x="69.48082" y="231.64" style="stroke: #000000; stroke-width: 0.8"/>
      </g>
     </g>
     <g id="text_1">
      <text style="font-size: 10px; font-family: 'Arial', 'Liberation Sans', 'DejaVu Sans', sans-serif; text-anchor: middle" x="69.48082" y="245.886875" transform="rotate(-0 69.48082 245.886875)">−20</text>
     </g>
    </g>
    <g id="xtick_2">
     <g id="line2d_2">
      <g>
       <use xlink:href="#meecf9f1d3c" x="120.180896" y="231.64" style="stroke: #000000; stroke-width: 0.8"/>
      </g>
     </g>
     <g id="text_2">
      <text style="font-size: 10px; font-family: 'Arial', 'Liberation Sans', 'DejaVu Sans', sans-serif; text-anchor: middle" x="120.180896" y="245.886875" transform="rotate(-0 120.180896 245.886875)">−10</text>
     </g>
    </g>
    <g id="xtick_3">
     <g id="line2d_3">
      <g>
       <use xlink:href="#meecf9f1d3c" x="170.880972" y="231.64" style="stroke: #000000; stroke-width: 0.8"/>
      </g>
     </g>
     <g id="text_3">
      <text style="font-size: 10px; font-family: 'Arial', 'Liberation Sans', 'DejaVu Sans', sans-serif; text-anchor: middle" x="170.880972" y="245.886875" transform="rotate(-0 170.880972 245.886875)">0</text>
     </g>
    </g>
    <g id="xtick_4">
     <g id="line2d_4">
      <g>
       <use xlink:href="#meecf9f1d3c" x="221.581048" y="231.64" style="stroke: #000000; stroke-width: 0.8"/>
      </g>
     </g>
     <g id="text_4">
      <text style="font-size: 10px; font-family: 'Arial', 'Liberation Sans', 'DejaVu Sans', sans-serif; text-anchor: middle" x="221.581048" y="245.886875" transform="rotate(-0 221.581048 245.886875)">10</text>
     </g>
    </g>
    <g id="xtick_5">
     <g id="line2d_5">
      <g>
       <use xlink:href="#meecf9f1d3c" x="272.281124" y="231.64" style="stroke: #000000; stroke-width: 0.8"/>
      </g>
     </g>
     <g id="text_5">
      <text style="font-size: 10px; font-family: 'Arial', 'Liberation Sans', 'DejaVu Sans', sans-serif; text-anchor: middle" x="272.281124" y="245.886875" transform="rotate(-0 272.281124 245.886875)">20</text>
     </g>
    </g>
    <g id="text_6">
     <text style="font-size: 10px; font-family: 'Arial', 'Liberation Sans', 'DejaVu Sans', sans-serif; text-anchor: middle" x="171.325" y="259.20875" transform="rotate(-0 171.325 259.20875)">PC1 (51.7%)</text>
    </g>
   </g>
   <g id="matplotlib.axis_2">
    <g id="ytick_1">
     <g id="line2d_6">
      <defs>
       <path id="m9d2e887073" d="M 0 0 
L -3.5 0 
" style="stroke: #000000; stroke-width: 0.8"/>
      </defs>
      <g>
       <use xlink:href="#m9d2e887073" x="48.8" y="230.608357" style="stroke: #000000; stroke-width: 0.8"/>
      </g>
     </g>
     <g id="text_7">
      <text style="font-size: 10px; font-family: 'Arial', 'Liberation Sans', 'DejaVu Sans', sans-serif; text-anchor: end" x="41.8" y="234.231795" transform="rotate(-0 41.8 234.231795)">−15</text>
     </g>
    </g>
    <g id="ytick_2">
     <g id="line2d_7">
      <g>
       <use xlink:href="#m9d2e887073" x="48.8" y="202.02151" style="stroke: #000000; stroke-width: 0.8"/>
      </g>
     </g>
     <g id="text_8">
      <text style="font-size: 10px; font-family: 'Arial', 'Liberation Sans', 'DejaVu Sans', sans-serif; text-anchor: end" x="41.8" y="205.644947" transform="rotate(-0 41.8 205.644947)">−10</text>
     </g>
    </g>
    <g id="ytick_3">
     <g id="line2d_8">
      <g>
       <use xlink:href="#m9d2e887073" x="48.8" y="173.434662" style="stroke: #000000; stroke-width: 0.8"/>
      </g>
     </g>
     <g id="text_9">
      <text style="font-size: 10px; font-family: 'Arial', 'Liberation Sans', 'DejaVu Sans', sans-serif; text-anchor: end" x="41.8" y="177.058099" transform="rotate(-0 41.8 177.058099)">−5</text>
     </g>
    </g>
    <g id="ytick_4">
     <g id="line2d_9">
      <g>
       <use xlink:href="#m9d2e887073" x="48.8" y="144.847814" style="stroke: #000000; stroke-width: 0.8"/>
      </g>
     </g>
     <g id="text_10">
      <text style="font-size: 10px; font-family: 'Arial', 'Liberation Sans', 'DejaVu Sans', sans-serif; text-anchor: end" x="41.8" y="148.471252" transform="rotate(-0 41.8 148.471252)">0</text>
     </g>
    </g>
    <g id="ytick_5">
     <g id="line2d_10">
      <g>
       <use xlink:href="#m9d2e887073" x="48.8" y="116.260966" style="stroke: #000000; stroke-width: 0.8"/>
      </g>
     </g>
     <g id="text_11">
      <text style="font-size: 10px; font-family: 'Arial', 'Liberation Sans', 'DejaVu Sans', sans-serif; text-anchor: end" x="41.8" y="119.884404" transform="rotate(-0 41.8 119.884404)">5</text>
     </g>
    </g>
    <g id="ytick_6">
     <g id="line2d_11">
      <g>
       <use xlink:href="#m9d2e887073" x="48.8" y="87.674118" style="stroke: #000000; stroke-width: 0.8"/>
      </g>
     </g>
     <g id="text_12">
      <text style="font-size: 10px; font-family: 'Arial', 'Liberation Sans', 'DejaVu Sans', sans-serif; text-anchor: end" x="41.8" y="91.297556" transform="rotate(-0 41.8 91.297556)">10</text>
     </g>
    </g>
    <g id="ytick_7">
     <g id="line2d_12">
      <g>
       <use xlink:href="#m9d2e887073" x="48.8" y="59.087271" style="stroke: #000000; stroke-width: 0.8"/>
      </g>
     </g>
     <g id="text_13">
      <text style="font-size: 10px; font-family: 'Arial', 'Liberation Sans', 'DejaVu Sans', sans-serif; text-anchor: end" x="41.8" y="62.710708" transform="rotate(-0 41.8 62.710708)">15</text>
     </g>
    </g>
    <g id="ytick_8">
     <g id="line2d_13">
      <g>
       <use xlink:href="#m9d2e887073" x="48.8" y="30.500423" style="stroke: #000000; stroke-width: 0.8"/>
      </g>
     </g>
     <g id="text_14">
      <text style="font-size: 10px; font-family: 'Arial', 'Liberation Sans', 'DejaVu Sans', sans-serif; text-anchor: end" x="41.8" y="34.12386" transform="rotate(-0 41.8 34.12386)">20</text>
     </g>
    </g>
    <g id="text_15">
     <text style="font-size: 10px; font-family: 'Arial', 'Liberation Sans', 'DejaVu Sans', sans-serif; text-anchor: middle" x="18.7625" y="128.18" transform="rotate(-90 18.7625 128.18)">PC2 (22.0%)</text>
    </g>
   </g>
   <g id="patch_3">
    <path d="M 48.8 231.64 
L 48.8 24.72 
" style="fill: none; stroke: #000000; stroke-width: 0.8; stroke-linejoin: miter; stroke-linecap: square"/>
   </g>
   <g id="patch_4">
    <path d="M 293.85 231.64 
L 293.85 24.72 
" style="fill: none; stroke: #000000; stroke-width: 0.8; stroke-linejoin: miter; stroke-linecap: square"/>
   </g>
   <g id="patch_5">
    <path d="M 48.8 231.64 
L 293.85 231.64 
" style="fill: none; stroke: #000000; stroke-width: 0.8; stroke-linejoin: miter; stroke-linecap: square"/>
   </g>
   <g id="patch_6">
    <path d="M 48.8 24.72 
L 293.85 24.72 
" style="fill: none; stroke: #000000; stroke-width: 0.8; stroke-linejoin: miter; stroke-linecap: square"/>
   </g>
   <g id="text_16">
    <text style="font-size: 7px; font-family: 'Arial', 'Liberation Sans', 'DejaVu Sans', sans-serif; text-anchor: start" x="154.276183" y="32.672955" transform="rotate(-0 154.276183 32.672955)">247945</text>
   </g>
   <g id="text_17">
    <text style="font-size: 7px; font-family: 'Arial', 'Liberation Sans', 'DejaVu Sans', sans-serif; text-anchor: start" x="157.231437" y="49.348502" transform="rotate(-0 157.231437 49.348502)">247946</text>
   </g>
   <g id="text_18">
    <text style="font-size: 7px; font-family: 'Arial', 'Liberation Sans', 'DejaVu Sans', sans-serif; text-anchor: start" x="140.896003" y="63.848851" transform="rotate(-0 140.896003 63.848851)">247947</text>
   </g>
   <g id="text_19">
    <text style="font-size: 7px; font-family: 'Arial', 'Liberation Sans', 'DejaVu Sans', sans-serif; text-anchor: start" x="62.812274" y="171.009179" transform="rotate(-0 62.812274 171.009179)">247948</text>
   </g>
   <g id="text_20">
    <text style="font-size: 7px; font-family: 'Arial', 'Liberation Sans', 'DejaVu Sans', sans-serif; text-anchor: start" x="65.294886" y="177.489101" transform="rotate(-0 65.294886 177.489101)">247949</text>
   </g>
   <g id="text_21">
    <text style="font-size: 7px; font-family: 'Arial', 'Liberation Sans', 'DejaVu Sans', sans-serif; text-anchor: start" x="59.938636" y="179.747659" transform="rotate(-0 59.938636 179.747659)">247950</text>
   </g>
   <g id="text_22">
    <text style="font-size: 7px; font-family: 'Arial', 'Liberation Sans', 'DejaVu Sans', sans-serif; text-anchor: start" x="73.469584" y="154.378247" transform="rotate(-0 73.469584 154.378247)">247951</text>
   </g>
   <g id="text_23">
    <text style="font-size: 7px; font-family: 'Arial', 'Liberation Sans', 'DejaVu Sans', sans-serif; text-anchor: start" x="277.489233" y="128.580331" transform="rotate(-0 277.489233 128.580331)">247952</text>
   </g>
   <g id="text_24">
    <text style="font-size: 7px; font-family: 'Arial', 'Liberation Sans', 'DejaVu Sans', sans-serif; text-anchor: start" x="282.711364" y="130.757103" transform="rotate(-0 282.711364 130.757103)">247953</text>
   </g>
   <g id="text_25">
    <text style="font-size: 7px; font-family: 'Arial', 'Liberation Sans', 'DejaVu Sans', sans-serif; text-anchor: start" x="279.508655" y="120.330604" transform="rotate(-0 279.508655 120.330604)">247954</text>
   </g>
   <g id="text_26">
    <text style="font-size: 7px; font-family: 'Arial', 'Liberation Sans', 'DejaVu Sans', sans-serif; text-anchor: start" x="230.12349" y="217.009617" transform="rotate(-0 230.12349 217.009617)">247955</text>
   </g>
   <g id="text_27">
    <text style="font-size: 7px; font-family: 'Arial', 'Liberation Sans', 'DejaVu Sans', sans-serif; text-anchor: start" x="225.308792" y="220.782045" transform="rotate(-0 225.308792 220.782045)">247956</text>
   </g>
   <g id="text_28">
    <text style="font-size: 7px; font-family: 'Arial', 'Liberation Sans', 'DejaVu Sans', sans-serif; text-anchor: start" x="212.392101" y="218.184889" transform="rotate(-0 212.392101 218.184889)">247957</text>
   </g>
   <g id="text_29">
    <text style="font-weight: 700; font-size: 11px; font-family: 'Arial', 'Liberation Sans', 'DejaVu Sans', sans-serif; text-anchor: start" x="48.8" y="18.72" transform="rotate(-0 48.8 18.72)">GSE9825 raw CEL PM-QN sensitivity PCA</text>
   </g>
  </g>
 </g>
 <defs>
  <clipPath id="pc28463d368">
   <rect x="48.8" y="24.72" width="245.05" height="206.92"/>
  </clipPath>
 </defs>
</svg>
